# xmcd
# 
# Track frame offsets:
#     150
#     20930
#     41504
#     58343
#     76696
#     92537
#     110586
#     126558
#     146556
#     165436
#     183006
#     199681
#     214837
#     232508
#     248157
#     262220
#     278636
#     294703
#     309393
#     325728
#     341056
# 
# Disc length: 4742
# 
# Revision: 12
# Processed by: cddbd v1.5.2PL0 Copyright (c) Steve Scherf et al.
# Submitted via: fre:ac v1.0.31
# 
DISCID=32128415
DTITLE=Various Artist - Bravo Hits 58 - CD2
DYEAR=2007
DGENRE=Pop
TTITLE0=Bon Jovi - (You Want To) Make A Memory (Pop Album Version)
TTITLE1=P!nk - Dear Mr. President (Main Version)
TTITLE2=Ich+Ich - Vom selben Stern (Radio Edit)
TTITLE3=Azad feat. Adel Tawil - Prison Break Anthem (Ich glaub an Dich) (Single Version)
TTITLE4=Christina Stürmer - Um bei Dir zu sein (Radio Edit)
TTITLE5=Avril Lavigne - When You're Gone
TTITLE6=Maroon 5 - Makes Me Wonder (Album Version)
TTITLE7=Maria Mena - Just Hold Me
TTITLE8=Akon - Don't Matter (Radio Edit)
TTITLE9=Sarah Connor feat. Ne-Yo - Sexual Healing (Video Version)
TTITLE10=Tommy Reeve - I'm Sorry (Radio Edit)
TTITLE11=Melanie C - Carolyna
TTITLE12=Rapsoul - Erste Liebe
TTITLE13=Pretty Ricky - (I Wanna See You) Push It Baby (Explicit Album Version)
TTITLE14=Jan Delay - Türlich, Türlich (Radio Edit)
TTITLE15=Die Fantastischen Vier - Einfach sein (Radio Version)
TTITLE16=Down Below - Private Soul Security
TTITLE17=Killerpilze - Liebmichhassmich
TTITLE18=LaFee - Heul doch (Single Version)
TTITLE19=Revolverheld - Du explodierst (Radio Edit)
TTITLE20=Sportfreunde Stiller - Alles Roger!
EXTD=YEAR: 2007
EXTT0=
EXTT1=
EXTT2=
EXTT3=
EXTT4=
EXTT5=
EXTT6=
EXTT7=
EXTT8=
EXTT9=
EXTT10=
EXTT11=
EXTT12=
EXTT13=
EXTT14=
EXTT15=
EXTT16=
EXTT17=
EXTT18=
EXTT19=
EXTT20=
PLAYORDER=
